<?xml version="1.0" encoding="UTF-8"?>
<svg width="512" height="512" viewBox="0 0 512 512" fill="none" xmlns="http://www.w3.org/2000/svg">
  <!--
    Crumb app icon (original).
    Theme: soft blueberry background + warm bread + little crumb sparkle.
  -->

  <!-- Background (rounded square) -->
  <rect x="24" y="24" width="464" height="464" rx="112" fill="#7C8FB2"/>

  <!-- Subtle highlight -->
  <path d="M94 168c48-70 140-118 237-104 41 6 77 22 105 45 10 8 12 22 4 33-8 11-23 13-34 5-24-17-54-29-87-34-78-11-153 26-192 82-7 11-22 15-33 7-11-7-15-22-7-34Z" fill="#90A1C3" opacity="0.55"/>

  <!-- Bread slice (base) -->
  <path d="M170 170c0-31 25-56 56-56h60c31 0 56 25 56 56v24c0 14 5 27 14 38 12 14 19 32 19 52v78c0 22-18 40-40 40H181c-22 0-40-18-40-40v-78c0-20 7-38 19-52 9-11 14-24 14-38v-24Z" fill="#F1D8A4"/>
  <path d="M187 176c0-22 18-40 40-40h55c22 0 40 18 40 40v14c0 12 4 24 11 33 10 13 16 29 16 47v86c0 14-12 26-26 26H205c-14 0-26-12-26-26v-86c0-18 6-34 16-47 7-9 11-21 11-33v-14Z" fill="#F7E4BF" opacity="0.9"/>

  <!-- Cinnamon swirl / crumb spiral -->
  <path d="M206 330c0-30 23-54 54-54h33c17 0 31-14 31-31 0-15-12-27-27-27h-64c-13 0-24 11-24 24 0 11 9 20 20 20h50" stroke="#B77B4E" stroke-width="18" stroke-linecap="round" stroke-linejoin="round" opacity="0.9"/>

  <!-- Bite mark (top-right) -->
  <path d="M366 196c-8 0-15-3-21-8-6-6-9-13-9-21 0-8 3-15 9-21 6-6 13-9 21-9 4 0 8 1 12 3 2-6 7-11 13-14 7-3 15-3 22 0 8 4 13 12 13 21 0 8-4 16-11 20 4 5 6 11 6 18 0 8-3 15-9 21-6 6-13 9-21 9H366Z" fill="#7C8FB2"/>

  <!-- Crumbs (little dots) -->
  <circle cx="154" cy="364" r="8" fill="#F1D8A4" opacity="0.95"/>
  <circle cx="132" cy="338" r="6" fill="#F1D8A4" opacity="0.9"/>
  <circle cx="150" cy="318" r="5" fill="#F1D8A4" opacity="0.85"/>

  <!-- Tiny sparkle (subtle) -->
  <path d="M392 350l8 18 18 8-18 8-8 18-8-18-18-8 18-8 8-18Z" fill="#FFFFFF" opacity="0.55"/>
</svg>
